<?xml version="1.0" encoding="utf-8"?>
<!-- Generator: Adobe Illustrator 24.0.1, SVG Export Plug-In . SVG Version: 6.00 Build 0)  -->
<svg version="1.1" id="Layer_1" xmlns="http://www.w3.org/2000/svg" xmlns:xlink="http://www.w3.org/1999/xlink" x="0px" y="0px"
	 viewBox="0 0 368.6 368.6" style="enable-background:new 0 0 368.6 368.6;" xml:space="preserve">
<style type="text/css">
	.st0{fill:#666666;}
</style>
<path class="st0" d="M285.9,71.1c6.4,0,11.5,5.2,11.5,11.5V340c0,6.4-5.2,11.5-11.5,11.5H28.5c-6.4,0-11.5-5.2-11.5-11.5V82.6
	c0-6.3,5.2-11.5,11.5-11.5L285.9,71.1 M285.9,54.1H28.5C12.8,54.1,0,66.9,0,82.6V340c0,15.8,12.8,28.5,28.5,28.5h257.4
	c15.8,0,28.5-12.8,28.5-28.5V82.6C314.4,66.9,301.7,54.1,285.9,54.1L285.9,54.1z"/>
<g>
	<path class="st0" d="M184.9,189.1c0.8-1.6,1.2-3.7,1.2-6.3c0-2.3-0.6-4.2-1.7-5.6c-1.1-1.4-2.5-2.4-4.2-3.2
		c-1.7-0.8-3.7-1.3-5.8-1.6c-2.1-0.3-4.2-0.4-6.1-0.4h-14.5v22.8h15.3c2.5,0,4.8-0.1,6.8-0.4s3.9-0.8,5.4-1.6
		C182.9,191.9,184.1,190.7,184.9,189.1z"/>
	<path class="st0" d="M212.1,155c-5.7-5.8-12.4-10.4-20.1-13.7s-15.9-4.9-24.5-4.9c-8.8,0-17.1,1.6-24.8,4.9s-14.4,7.8-20.1,13.7
		c-5.7,5.8-10.2,12.7-13.4,20.7c-3.3,8-4.9,16.8-4.9,26.3c0,9.6,1.6,18.4,4.9,26.4c3.3,8.1,7.8,15.1,13.4,20.9
		c5.7,5.9,12.4,10.5,20.1,13.8s15.9,4.9,24.8,4.9c8.7,0,16.8-1.6,24.5-4.9c7.7-3.3,14.4-7.9,20.1-13.8c5.7-5.9,10.2-12.9,13.6-20.9
		s5-16.9,5-26.4s-1.7-18.3-5-26.3C222.3,167.8,217.8,160.8,212.1,155z M185.7,245.3l-21.1-37h-10.8v37h-17.2v-86.7h32.7
		c10.9,0,19.3,1.9,25.1,5.8c5.9,3.9,8.8,10.5,8.8,19.9c0,4-0.6,7.4-1.8,10.2c-1.2,2.8-2.8,5.1-4.9,6.9c-2.1,1.8-4.5,3.2-7.2,4.1
		c-2.8,1-5.7,1.6-8.9,1.9l23.2,37.9H185.7z"/>
	<path class="st0" d="M340,0H82.6C66.9,0,54.1,12.8,54.1,28.5v257.4c0,15.8,12.8,28.5,28.5,28.5H340c15.8,0,28.5-12.8,28.5-28.5
		V28.5C368.6,12.8,355.8,0,340,0z M246.5,236.8c-4.7,10.3-11,19.1-18.9,26.4c-7.9,7.3-17.1,13-27.4,16.9c-10.4,4-21.2,5.9-32.6,5.9
		c-11.4,0-22.2-2-32.6-5.9c-10.4-4-19.5-9.6-27.4-16.9c-7.9-7.3-14.2-16.1-18.9-26.4c-4.7-10.3-7.1-21.9-7.1-34.7
		c0-12.7,2.3-24.2,7.1-34.5c4.7-10.3,11-19.1,18.9-26.3c7.9-7.2,17.1-12.8,27.4-16.8c10.4-4,21.2-5.9,32.6-5.9
		c11.4,0,22.2,2,32.6,5.9c10.4,4,19.5,9.6,27.4,16.8c7.9,7.2,14.2,16,18.9,26.3c4.7,10.3,7.1,21.8,7.1,34.5
		C253.5,214.9,251.2,226.5,246.5,236.8z"/>
</g>
</svg>
