<svg width="97" height="51" viewBox="0 0 97 51" fill="none" xmlns="http://www.w3.org/2000/svg">
<path fill-rule="evenodd" clip-rule="evenodd" d="M82.6394 21.0072C82.7035 20.5627 83.0855 20.2339 83.5382 20.2339H84.6975C85.2745 20.2339 85.7049 20.7615 85.5859 21.3217C85.4969 21.7376 85.1266 22.0366 84.6975 22.0366H83.5382C82.9861 22.0366 82.5609 21.5505 82.6394 21.0072ZM90.8901 41.2761L96.982 11.0788C97.0945 10.5199 96.6654 10 96.0923 10H76.4023C75.9731 10 75.6028 10.2976 75.5139 10.7148L71.6436 28.8756C71.5246 29.4371 71.955 29.9634 72.532 29.9634H82.6184C83.1954 29.9634 83.6259 30.4924 83.5068 31.0526L83.499 31.0851C83.4113 31.501 83.041 31.7986 82.6119 31.7986H71.713C71.2851 31.7986 70.9148 32.0963 70.8259 32.5122L69.0203 40.9108C68.8999 41.471 69.3304 42 69.9074 42H90.0004C90.4335 42 90.8051 41.6972 90.8901 41.2761Z" fill="#FEFEFE"/>
<path fill-rule="evenodd" clip-rule="evenodd" d="M71.2791 11.2555C71.3937 10.7069 70.9749 10.1927 70.4149 10.1927H63.1069C62.6908 10.1927 62.3319 10.4829 62.244 10.8889L57.918 30.844C57.8289 31.25 57.47 31.5402 57.0551 31.5402H56.7459C56.1884 31.5402 55.7697 31.0273 55.8817 30.4813L61.8431 1.2302C61.9539 0.682931 61.5364 0.171295 60.9777 0.171295H53.8237C53.4062 0.171295 53.0473 0.46275 52.9595 0.870022L44.5277 40.4633C44.4106 41.0118 44.8293 41.5286 45.3906 41.5286H64.2537C64.6724 41.5286 65.0326 41.2358 65.1179 40.826L71.2791 11.2555Z" fill="#FEFEFE"/>
<path fill-rule="evenodd" clip-rule="evenodd" d="M63.0467 44H55.3317C54.8835 44 54.4959 44.2664 54.3996 44.6396L53.0222 50.0131C52.8929 50.52 53.3452 51 53.9542 51H61.672C62.1201 51 62.5078 50.7336 62.6027 50.3604L63.9774 44.9869C64.108 44.48 63.6557 44 63.0467 44Z" fill="#FEFEFE"/>
<path fill-rule="evenodd" clip-rule="evenodd" d="M30.7569 18C31.2109 18 31.6017 17.7277 31.6925 17.3487L32.9803 11.9764C33.1013 11.4718 32.6501 11 32.0461 11H24.3111C23.8612 11 23.4719 11.2676 23.3783 11.6419L22.0218 17.0142C21.8938 17.5224 22.3465 18 22.9546 18H30.7569Z" fill="#FEFEFE"/>
<path fill-rule="evenodd" clip-rule="evenodd" d="M29.7576 28C30.2104 28 30.6012 27.7277 30.6921 27.3499L31.9803 21.9764C32.1014 21.4729 31.65 21 31.0458 21H16.3334C15.8847 21 15.4966 21.2664 15.4003 21.6396L14.0226 27.0119C13.8919 27.52 14.3447 28 14.9543 28H29.7576Z" fill="#FEFEFE"/>
<path fill-rule="evenodd" clip-rule="evenodd" d="M52.0466 44H44.331C43.8828 44 43.4951 44.2664 43.3988 44.6396L42.0226 50.0131C41.892 50.52 42.3443 51 42.9534 51H50.6718C51.12 51 51.5077 50.7336 51.6026 50.3604L52.9774 44.9869C53.108 44.48 52.6557 44 52.0466 44Z" fill="#FEFEFE"/>
<path fill-rule="evenodd" clip-rule="evenodd" d="M47.9185 1.2306C48.029 0.683328 47.6157 0.171692 47.0654 0.171692H40.0018C39.591 0.171692 39.2354 0.463146 39.15 0.870419L32.8478 30.8406C32.7624 31.2479 32.4081 31.5393 31.996 31.5393H12.0869C11.5354 31.5393 11.1233 31.0277 11.2338 30.4804L13.6009 18.7586C13.7115 18.2113 13.2994 17.6984 12.7478 17.6984H10.9436C7.37035 17.6984 4.28461 20.2286 3.5383 23.7668L0.0190971 40.4624C-0.0964927 41.011 0.316866 41.529 0.8722 41.529H39.0985C39.5131 41.529 39.8699 41.2337 39.9528 40.8226L47.9185 1.2306Z" fill="#FEFEFE"/>
</svg>
